<svg width="40" height="40" viewBox="0 0 40 40" fill="none" xmlns="http://www.w3.org/2000/svg">
<path d="M0 8C0 3.58172 3.58172 0 8 0H32C36.4183 0 40 3.58172 40 8V32C40 36.4183 36.4183 40 32 40H8C3.58172 40 0 36.4183 0 32V8Z" fill="#F0F0F0"/>
<path d="M12.0834 13.75H13.3256C13.8118 13.75 14.2275 14.0997 14.3108 14.5787L14.4566 15.4167M14.4566 15.4167L15.8971 21.7752C16.1035 22.6865 16.9133 23.3333 17.8476 23.3333H24.2106C25.1564 23.3333 25.9728 22.6708 26.1677 21.7454L27.5 15.4167H14.4566Z" stroke="black" stroke-width="1.25" stroke-linecap="round" stroke-linejoin="round"/>
<path d="M18.75 26.6667C18.9802 26.6667 19.1667 26.4801 19.1667 26.25C19.1667 26.0199 18.9802 25.8333 18.75 25.8333C18.5199 25.8333 18.3334 26.0199 18.3334 26.25C18.3334 26.4801 18.5199 26.6667 18.75 26.6667Z" fill="black" stroke="black" stroke-width="1.25" stroke-linecap="round" stroke-linejoin="round"/>
<path d="M23.75 26.6667C23.9802 26.6667 24.1667 26.4801 24.1667 26.25C24.1667 26.0199 23.9802 25.8333 23.75 25.8333C23.5199 25.8333 23.3334 26.0199 23.3334 26.25C23.3334 26.4801 23.5199 26.6667 23.75 26.6667Z" fill="black" stroke="black" stroke-width="1.25" stroke-linecap="round" stroke-linejoin="round"/>
</svg>
