<svg width="18" height="18" viewBox="0 0 18 18" fill="none" xmlns="http://www.w3.org/2000/svg">
<g id="Warning Button" clip-path="url(#clip0_410_7252)">
<path id="Vector" d="M8.9999 17.0525C13.4472 17.0525 17.0525 13.4472 17.0525 8.9999C17.0525 4.55255 13.4472 0.947266 8.9999 0.947266C4.55255 0.947266 0.947266 4.55255 0.947266 8.9999C0.947266 13.4472 4.55255 17.0525 8.9999 17.0525Z" fill="#A8CDF4"/>
<path id="Vector_2" d="M8.99964 14.6841C12.1389 14.6841 14.6839 12.1392 14.6839 8.99988C14.6839 5.86058 12.1389 3.31567 8.99964 3.31567C5.86034 3.31567 3.31543 5.86058 3.31543 8.99988C3.31543 12.1392 5.86034 14.6841 8.99964 14.6841Z" stroke="#007AFF" stroke-linecap="round" stroke-linejoin="round"/>
<path id="Vector_3" d="M9 6V9" stroke="#007AFF" stroke-width="2" stroke-linecap="round" stroke-linejoin="round"/>
<path id="Vector_4" d="M9 12H9.0075" stroke="#007AFF" stroke-width="2" stroke-linecap="round" stroke-linejoin="round"/>
</g>
<defs>
<clipPath id="clip0_410_7252">
<rect width="18" height="18" fill="white"/>
</clipPath>
</defs>
</svg>
